<svg width="320" height="87.55852339039498" viewBox="0 0 320 87.55852339039498" class="css-1j8o68f">
    <defs id="SvgjsDefs1001"></defs>
    <g id="SvgjsG1007" featurekey="symbolFeature-0"
       transform="matrix(1.0140239845080357,0,0,1.0140239845080357,-0.7017046291921655,-6.5176104584220536)"
       fill="#9cd1fd">
        <g xmlns="http://www.w3.org/2000/svg">
            <path fill-rule="evenodd" clip-rule="evenodd"
                  d="M82.211,35.104c4.822,0,8.754-3.933,8.754-8.755c0-4.821-3.932-8.754-8.754-8.754   s-8.754,3.933-8.754,8.754C73.457,31.172,77.389,35.104,82.211,35.104z"></path>
            <path fill-rule="evenodd" clip-rule="evenodd"
                  d="M99.309,56.287l-6.135-9.563l-6.135-9.563l-0.002,0.001   c-0.004-0.02-0.01-0.039-0.014-0.059c-1.615,0-3.232,0-4.844,0c-1.615,0-3.23,0-4.842,0c-0.012,0.041-0.021,0.082-0.031,0.124   l-6.094,9.496l-6.135,9.563l8.305-3.72c-1.113,4.358-2.227,8.718-3.342,13.075h4.82l2.328,9.496l2.342,9.559l2.344-9.559   l0.307-1.252l0.307,1.252l2.344,9.559l2.344-9.559l2.328-9.496h4.816c-1.115-4.362-2.23-8.726-3.348-13.089L99.309,56.287z"></path>
            <polygon fill-rule="evenodd" clip-rule="evenodd"
                     points="28.798,44.619 24.943,34.418 24.943,34.403 24.937,34.403 24.935,34.397    24.921,34.403 8.422,34.35 8.422,34.364 8.418,34.362 4.555,44.583 0.692,54.806 8.422,49.168 8.422,53.725 12.483,82.095    16.701,66.052 20.881,82.095 24.943,53.725 24.943,49.212 32.661,54.841  "></polygon>
            <path fill-rule="evenodd" clip-rule="evenodd"
                  d="M16.729,32.143c4.638,0,8.42-3.782,8.42-8.42s-3.782-8.42-8.42-8.42   s-8.42,3.782-8.42,8.42S12.091,32.143,16.729,32.143z"></path>
            <path fill-rule="evenodd" clip-rule="evenodd"
                  d="M56.063,58.58c2.168,0,3.938-1.769,3.938-3.938c0-2.168-1.77-3.937-3.938-3.937   s-3.938,1.769-3.938,3.937C52.125,56.812,53.895,58.58,56.063,58.58z"></path>
            <path fill-rule="evenodd" clip-rule="evenodd"
                  d="M58.176,59.479c-0.709,0-1.42,0-2.127,0c-0.727,0-1.453,0-2.178,0   c-0.004,0.019-0.01,0.038-0.014,0.057l-2.74,4.271l-2.723,4.244l-1.818-4.811l-1.826-4.831V58.4h-0.003l-0.001-0.003L44.739,58.4   l-7.032-0.022l-4.885-3.563l1.83,4.842l2.271,5.994v1.902l1.924,9.563l1.998-7.601l1.98,7.601l1.924-9.563v-2.138l3.634,2.65   l-0.025,0.04l3.736-1.673c-0.502,1.96-1.002,3.921-1.503,5.881h2.167l2.1,6.081l1.055-4.299l0.137-0.563l0.139,0.563l1.055,4.299   l2.1-6.081h2.168c-0.547-2.139-1.096-4.278-1.643-6.416c-0.086-0.34-0.174-0.681-0.26-1.021l2.676-4.172l2.758-4.301l-5.451,2.441   L58.176,59.479z"></path>
            <path fill-rule="evenodd" clip-rule="evenodd"
                  d="M40.858,57.329c2.197,0,3.989-1.792,3.989-3.989c0-2.196-1.792-3.988-3.989-3.988   c-2.196,0-3.988,1.792-3.988,3.988C36.87,55.537,38.662,57.329,40.858,57.329z"></path>
            <polygon fill-rule="evenodd" clip-rule="evenodd"
                     points="56.063,49.568 57.287,50.275 58.537,50.996 58.537,49.554 58.537,48.111    57.287,48.833 56.117,49.508 54.893,48.802 53.645,48.08 53.645,49.522 53.645,50.965 54.893,50.244  "></polygon>
        </g>
    </g>
    <g id="SvgjsG1008" featurekey="nameFeature-0"
       transform="matrix(2.7846272311652545,0,0,2.7846272311652545,118.44071994830874,-32.524120267632014)"
       fill="#ffffff">
        <path d="M3.88 26.04 c0.10668 0.16 0.58 0.5004 1.42 1.0204 s1.82 1.0733 2.94 1.66 s2.26 1.1334 3.42 1.64 s2.1267 0.81336 2.9 0.92004 c0.08 0.26668 0.14 0.46 0.18 0.58 s0.06668 0.21332 0.08 0.28 l0.04 0.2 l0.02 0.34 c-0.34668 -0.02668 -0.89336 -0.15336 -1.64 -0.38004 s-1.6267 -0.53336 -2.64 -0.92004 s-2.12 -0.84668 -3.32 -1.38 s-2.4 -1.1066 -3.6 -1.72 c0 1.2533 -0.02 2.4866 -0.06 3.7 s-0.06 2.4466 -0.06 3.7 c0 0.05332 0.0066796 0.3 0.02 0.74 s0.02 0.93332 0.02 1.48 l0 1.56 l-0.04 0.98 l-1.2 -0.4 c-0.02668 -0.29332 -0.04 -0.76 -0.04 -1.4 l0 -2.18 l0 -2.56 l-0.02 -2.56 l-0.06 -2.2 l-0.08 -1.42 c-0.08 -0.08 -0.20668 -0.15332 -0.38 -0.22 s-0.34 -0.15336 -0.5 -0.26004 s-0.31332 -0.23336 -0.46 -0.38004 s-0.23336 -0.32668 -0.26004 -0.54 c0.10668 -0.21332 0.33336 -0.41332 0.68004 -0.6 s0.65336 -0.4 0.92004 -0.64 c-0.02668 -0.10668 -0.05336 -0.42 -0.08004 -0.94 s-0.06 -1.16 -0.1 -1.92 s-0.08668 -1.5733 -0.14 -2.44 s-0.09332 -1.6867 -0.12 -2.46 s-0.04668 -1.4533 -0.06 -2.04 s-0.02 -0.97336 -0.02 -1.16 c0 -0.02668 0.08 -0.08 0.24 -0.16 s0.34 -0.14668 0.54 -0.2 s0.38 -0.09332 0.54 -0.12 s0.24 0.01332 0.24 0.12 c0.05332 1.92 0.13332 3.6867 0.24 5.3 s0.17336 3.22 0.20004 4.82 c0.21332 -0.21332 0.5 -0.55332 0.86 -1.02 s0.75332 -0.99336 1.18 -1.58 s0.86 -1.1934 1.3 -1.82 s0.84668 -1.2134 1.22 -1.76 s0.68664 -1.0267 0.93996 -1.44 s0.40664 -0.67332 0.45996 -0.78 c0.26668 -0.08 0.48668 -0.14668 0.66 -0.2 s0.32 -0.1 0.44 -0.14 s0.24668 -0.08 0.38 -0.12 s0.32 -0.08668 0.56 -0.14 c-0.13332 0.32 -0.31332 0.67332 -0.54 1.06 s-0.46668 0.78 -0.72 1.18 s-0.50664 0.79332 -0.75996 1.18 s-0.5 0.74 -0.74 1.06 c-0.02668 0.05332 -0.22668 0.36664 -0.6 0.93996 s-0.82664 1.2266 -1.36 1.96 s-1.08 1.4666 -1.64 2.2 s-1.0267 1.26 -1.4 1.58 z M15.56 22.4 c0.26668 -0.05332 0.42664 0.10672 0.47996 0.48004 s0 0.65332 -0.16 0.84 c-0.29332 0.24 -0.48 0.44668 -0.56 0.62 s-0.26668 0.28664 -0.56 0.33996 c-0.16 -0.02668 -0.3 -0.033359 -0.42 -0.020039 s-0.22 -0.20668 -0.3 -0.66 c0.10668 -0.29332 0.27336 -0.58664 0.50004 -0.87996 s0.56668 -0.53332 1.02 -0.72 z M15.68 27.6 c0.13332 1.28 0.22676 2.6867 0.28008 4.22 s0.14664 3.14 0.27996 4.82 c0.10668 0.85332 0.21336 1.52 0.32004 2 s0.18668 0.93332 0.24 1.36 c-0.42668 0.08 -0.76 0.07332 -1 -0.02 s-0.46668 -0.20664 -0.68 -0.33996 c-0.05332 -0.42668 -0.11332 -1.1334 -0.18 -2.12 s-0.13336 -2.06 -0.20004 -3.22 s-0.13336 -2.2867 -0.20004 -3.38 s-0.12668 -1.96 -0.18 -2.6 c0.10668 -0.05332 0.19336 -0.13332 0.26004 -0.24 s0.14 -0.2 0.22 -0.28 s0.18668 -0.14668 0.32 -0.2 s0.30664 -0.05332 0.51996 0 z M33.28 18.96 c-0.08 0.48 -0.17328 0.98676 -0.27996 1.5201 s-0.22 1.04 -0.34 1.52 s-0.22 0.89332 -0.3 1.24 s-0.13332 0.56 -0.16 0.64 c-0.16 0.45332 -0.37332 1.04 -0.64 1.76 s-0.58 1.4733 -0.94 2.26 s-0.76668 1.5734 -1.22 2.36 s-0.92 1.46 -1.4 2.02 c0 0.4 0.04668 1.0733 0.14 2.02 s0.20664 1.9667 0.33996 3.06 s0.26 2.1666 0.38 3.22 s0.19332 1.8733 0.22 2.46 c-0.13332 0.13332 -0.25332 0.10664 -0.36 -0.08004 s-0.26668 -0.50668 -0.48 -0.96 c-0.16 -0.69332 -0.28668 -1.3333 -0.38 -1.92 s-0.18 -1.18 -0.26 -1.78 s-0.16668 -1.2333 -0.26 -1.9 s-0.23332 -1.4267 -0.42 -2.28 c-0.50668 0.64 -1.1134 1.3667 -1.82 2.18 s-1.44 1.5333 -2.2 2.16 s-1.5067 1.0667 -2.24 1.32 s-1.3666 0.14 -1.9 -0.34 c-0.32 -0.42668 -0.46 -0.92668 -0.42 -1.5 s0.2 -1.16 0.48 -1.76 s0.64 -1.1933 1.08 -1.78 s0.88668 -1.1334 1.34 -1.64 s0.88 -0.94668 1.28 -1.32 s0.69332 -0.64 0.88 -0.8 c0.37332 -0.24 0.68664 -0.43332 0.93996 -0.58 s0.48 -0.26668 0.68 -0.36 s0.40668 -0.16 0.62 -0.2 s0.48 -0.04668 0.8 -0.02 c-0.05332 -0.61332 -0.08664 -1.3466 -0.09996 -2.2 s-0.01332 -1.7133 0 -2.58 s0.04 -1.6734 0.08 -2.42 s0.1 -1.32 0.18 -1.72 c0.05332 -0.58668 0.18 -1.2 0.38 -1.84 s0.45332 -1.26 0.76 -1.86 s0.64668 -1.1333 1.02 -1.6 s0.78 -0.8 1.22 -1 s0.89332 -0.24668 1.36 -0.14 s0.92668 0.44 1.38 1 c0.37332 0.45332 0.56 1.02 0.56 1.7 l0 2.14 z M28 29.64 c0.48 -0.53332 0.88008 -1.1 1.2001 -1.7 s0.68 -1.3133 1.08 -2.14 c0.34668 -0.72 0.66 -1.64 0.94 -2.76 s0.47332 -2.22 0.58 -3.3 s0.10668 -2.02 0 -2.82 s-0.37336 -1.2267 -0.80004 -1.28 c-0.37332 -0.05332 -0.72 0.08668 -1.04 0.42 s-0.61332 0.74664 -0.88 1.24 s-0.49336 1.02 -0.68004 1.58 s-0.32 1.0533 -0.4 1.48 c-0.10668 0.53332 -0.18 1.0133 -0.22 1.44 s-0.06668 0.87336 -0.08 1.34 s-0.03332 0.97336 -0.06 1.52 s-0.08 1.22 -0.16 2.02 c0 0.4 0.02 0.8 0.06 1.2 s0.09332 0.74 0.16 1.02 s0.12668 0.49332 0.18 0.64 s0.09332 0.18 0.12 0.1 z M22.2001 33.36 c-0.72 0.74668 -1.2467 1.4333 -1.58 2.06 s-0.60664 1.2067 -0.81996 1.74 l0 0.38 l0.06 0.5 l0.24 0.42 l0.58 0.1 c0.26668 -0.10668 0.48668 -0.21336 0.66 -0.32004 s0.33332 -0.22 0.48 -0.34 s0.30668 -0.24668 0.48 -0.38 s0.39332 -0.30664 0.66 -0.51996 c0.37332 -0.4 0.83332 -0.85332 1.38 -1.36 s1.0267 -1.04 1.44 -1.6 s0.68664 -1.1333 0.81996 -1.72 s-0.04 -1.16 -0.52 -1.72 c-0.18668 0 -0.38 0.02668 -0.58 0.08 s-0.44668 0.18 -0.74 0.38 s-0.64664 0.48 -1.06 0.84 s-0.91332 0.84668 -1.5 1.46 z M40.92 40 c-0.18668 0.18668 -0.3468 0.29312 -0.48012 0.3198 s-0.26664 0.0066796 -0.39996 -0.06 s-0.27332 -0.16 -0.42 -0.28 s-0.3 -0.22 -0.46 -0.3 c-0.02668 -0.37332 -0.08 -1.2066 -0.16 -2.5 s-0.16 -2.8333 -0.24 -4.62 s-0.16668 -3.7 -0.26 -5.74 s-0.17332 -4.0068 -0.24 -5.9 s-0.12668 -3.6066 -0.18 -5.14 s-0.06664 -2.66 -0.039961 -3.38 c-0.05332 0.02668 -0.03332 0.013359 0.06 -0.039961 s0.22 -0.12 0.38 -0.2 s0.34668 -0.16668 0.56 -0.26 s0.42664 -0.16664 0.63996 -0.21996 c-0.02668 1.2267 -0.04668 2.8934 -0.06 5 s0.013359 4.4468 0.08004 7.02 s0.19336 5.2732 0.38004 8.1 s0.46668 5.56 0.84 8.2 z M46.6 27.8 c0 0.74668 -0.0068752 1.4932 -0.020195 2.2399 s-0.026641 1.4667 -0.039961 2.16 s-0.026641 1.3466 -0.039961 1.96 s-0.03332 1.16 -0.06 1.64 c0 -0.10668 0.06 -0.36668 0.18 -0.78 s0.28668 -0.88664 0.5 -1.42 s0.44664 -1.1 0.69996 -1.7 s0.52664 -1.1333 0.81996 -1.6 s0.59332 -0.83336 0.9 -1.1 s0.59336 -0.34668 0.86004 -0.24 c0.58668 0.26668 1 0.65336 1.24 1.16 s0.41332 1.0867 0.52 1.74 s0.21336 1.38 0.32004 2.18 s0.34668 1.64 0.72 2.52 c0.16 0.4 0.39332 0.69332 0.7 0.88 s0.6 0.32 0.88 0.4 s0.50668 0.12668 0.68 0.14 s0.23332 0.06 0.18 0.14 c-0.66668 0.50668 -1.24 0.68 -1.72 0.52 s-0.88668 -0.51332 -1.22 -1.06 s-0.60664 -1.2 -0.81996 -1.96 s-0.40664 -1.4933 -0.57996 -2.2 s-0.32664 -1.3067 -0.45996 -1.8 s-0.28 -0.74 -0.44 -0.74 c-0.24 0.02668 -0.5 0.25336 -0.78 0.68004 s-0.56668 0.96 -0.86 1.6 s-0.57332 1.34 -0.84 2.1 s-0.51336 1.4733 -0.74004 2.14 s-0.40668 1.24 -0.54 1.72 s-0.21332 0.77332 -0.24 0.88 c-0.4 0 -0.64668 0.01332 -0.74 0.04 s-0.24664 -0.10664 -0.45996 -0.39996 c0.13332 -2.3467 0.18 -4.5668 0.14 -6.66 s-0.1 -3.9133 -0.18 -5.46 c0 -0.24 0.06 -0.36 0.18 -0.36 s0.25332 0.05332 0.4 0.16 s0.3 0.21336 0.46 0.32004 s0.29332 0.16 0.4 0.16 z M67.52 18.6 l-0.61992 -0.00015625 l-0.24 -0.02 l-0.06 -0.06 l-0.04 -0.12 c-0.05332 0 -0.12664 -0.12668 -0.21996 -0.38 s-0.22 -0.52664 -0.38 -0.81996 s-0.36668 -0.56664 -0.62 -0.81996 s-0.55332 -0.38 -0.9 -0.38 c-0.74668 -0.18668 -1.36 -0.08668 -1.84 0.3 s-0.87332 0.94668 -1.18 1.68 s-0.53336 1.58 -0.68004 2.54 s-0.25336 1.9267 -0.32004 2.9 s-0.1 1.9066 -0.1 2.8 s-0.01332 1.62 -0.04 2.18 c0.50668 -0.02668 0.92668 -0.04668 1.26 -0.06 s0.64 -0.026641 0.92 -0.039961 s0.54 -0.026641 0.78 -0.039961 s0.50668 -0.02 0.8 -0.02 c0.13332 0.02668 0.26664 0.10668 0.39996 0.24 s0.24664 0.28 0.33996 0.44 s0.16 0.30668 0.2 0.44 s0.03332 0.2 -0.02 0.2 c-0.48 0.08 -0.90668 0.13332 -1.28 0.16 s-0.73332 0.05336 -1.08 0.08004 s-0.7 0.04668 -1.06 0.06 s-0.76668 0.03332 -1.22 0.06 c0.02668 1.36 0.08 2.58 0.16 3.66 s0.15332 2.1067 0.22 3.08 s0.13336 1.9266 0.20004 2.86 s0.11336 1.92 0.14004 2.96 c-0.05332 0.21332 -0.19332 0.31332 -0.42 0.3 s-0.46 -0.03332 -0.7 -0.06 c-0.08 0 -0.13332 -0.01332 -0.16 -0.04 s-0.04668 -0.14668 -0.06 -0.36 s-0.026641 -0.57332 -0.039961 -1.08 s-0.04 -1.2267 -0.08 -2.16 s-0.1 -2.1333 -0.18 -3.6 s-0.2 -3.28 -0.36 -5.44 c-0.61332 0.05332 -1.1066 0.09332 -1.48 0.12 s-0.7 0.04668 -0.98 0.06 s-0.55332 0.02 -0.82 0.02 s-0.6 0.01332 -1 0.04 c-0.18668 0 -0.28 -0.04668 -0.28 -0.14 s0.03332 -0.21332 0.1 -0.36 s0.14668 -0.28668 0.24 -0.42 s0.15332 -0.22664 0.18 -0.27996 c0.16 -0.05332 0.62668 -0.12 1.4 -0.2 s1.6266 -0.17332 2.56 -0.28 c-0.13332 -2.56 -0.11332 -4.7 0.06 -6.42 s0.42664 -3.1133 0.75996 -4.18 s0.71332 -1.86 1.14 -2.38 s0.82668 -0.86 1.2 -1.02 c0.93332 -0.37332 1.7666 -0.39332 2.5 -0.06 s1.34 0.78 1.82 1.34 s0.82 1.1267 1.02 1.7 s0.22 0.91332 0.06 1.02 z M65.48 28 c0.50668 0.02668 1.0667 0.09996 1.68 0.21996 s1.2133 0.28 1.8 0.48 s1.1267 0.42668 1.62 0.68 s0.9 0.54 1.22 0.86 c0.32 0.29332 0.50668 0.74 0.56 1.34 s0.01332 1.26 -0.12 1.98 s-0.34 1.46 -0.62 2.22 s-0.59332 1.4467 -0.94 2.06 s-0.72 1.12 -1.12 1.52 s-0.77332 0.6 -1.12 0.6 c-0.58668 0 -1.08 -0.14 -1.48 -0.42 s-0.72 -0.62 -0.96 -1.02 s-0.42 -0.82 -0.54 -1.26 s-0.19332 -0.82 -0.22 -1.14 c-0.08 -1.4133 -0.09332 -2.6666 -0.04 -3.76 s0.14664 -2 0.27996 -2.72 c-0.08 -0.13332 -0.16 -0.25332 -0.24 -0.36 s-0.16 -0.20668 -0.24 -0.3 s-0.17332 -0.18 -0.28 -0.26 c0.10668 -0.05332 0.21336 -0.13332 0.32004 -0.24 c0.21332 -0.16 0.36 -0.32 0.44 -0.48 z M66.92 37.52 c0.08 0.10668 0.18688 0.22004 0.3202 0.34004 s0.3 0.21332 0.5 0.28 s0.40668 0.07336 0.62 0.020039 s0.44 -0.2 0.68 -0.44 c0.64 -0.66668 1.12 -1.3534 1.44 -2.06 s0.52668 -1.3734 0.62 -2 s0.08 -1.18 -0.04 -1.66 s-0.31332 -0.82668 -0.58 -1.04 c-0.21332 -0.13332 -0.39332 -0.24664 -0.54 -0.33996 s-0.33336 -0.18 -0.56004 -0.26 s-0.51336 -0.16668 -0.86004 -0.26 s-0.8 -0.22 -1.36 -0.38 c-0.26668 0.85332 -0.45336 1.7066 -0.56004 2.56 s-0.15336 1.6333 -0.14004 2.34 s0.06664 1.32 0.15996 1.84 s0.19332 0.87332 0.3 1.06 z"></path>
    </g>
</svg>